{
	"asset":{
		"generator":"Khronos glTF Blender I/O v3.5.30",
		"version":"2.0"
	},
	"scene":0,
	"scenes":[
		{
			"name":"Scene",
			"nodes":[
				6
			]
		}
	],
	"nodes":[
		{
			"mesh":0,
			"name":"cut-thickness & Box 1 & Box 2 & Box",
			"rotation":[
				0.70710688829422,
				0,
				0,
				0.7071066498756409
			],
			"translation":[
				-4.336237907409668e-06,
				4.999999046325684,
				93.89936828613281
			]
		},
		{
			"children":[
				0
			],
			"name":"Msg Bubble 1",
			"translation":[
				-3.28943133354187e-06,
				12.880059242248535,
				-1.4859344959259033
			]
		},
		{
			"mesh":1,
			"name":"cut-thickness - baked",
			"scale":[
				1,
				1,
				2.962425947189331
			],
			"translation":[
				-52.934120178222656,
				44.033447265625,
				5.000002384185791
			]
		},
		{
			"children":[
				2
			],
			"name":"Text field 1",
			"rotation":[
				0.70710688829422,
				0,
				0,
				0.7071066498756409
			],
			"translation":[
				-36.806419372558594,
				-20.919254302978516,
				166.5379180908203
			]
		},
		{
			"mesh":2,
			"name":"cut-thickness - baked.001",
			"scale":[
				1,
				1,
				2.975346326828003
			],
			"translation":[
				-52.934120178222656,
				44.03343200683594,
				5.000000953674316
			]
		},
		{
			"children":[
				4
			],
			"name":"Text field 2",
			"rotation":[
				0.70710688829422,
				0,
				0,
				0.7071066498756409
			],
			"translation":[
				-36.806419372558594,
				-20.919254302978516,
				121.29774475097656
			]
		},
		{
			"children":[
				1,
				3,
				5
			],
			"name":"Message Bubble Icon",
			"rotation":[
				0.7071066498756409,
				0,
				0,
				0.70710688829422
			],
			"scale":[
				-0.007624722085893154,
				-0.007753454148769379,
				-0.006864903494715691
			],
			"translation":[
				-0.00020306199439801276,
				0.03920585662126541,
				0.012603133916854858
			]
		}
	],
	"materials":[
		{
			"name":"secondary",
			"pbrMetallicRoughness":{
				"baseColorFactor":[
					0.020791668444871902,
					0.020791668444871902,
					0.020791668444871902,
					1
				],
				"metallicFactor":0,
				"roughnessFactor":0.2199999988079071
			}
		},
		{
			"name":"Primary",
			"pbrMetallicRoughness":{
				"baseColorFactor":[
					0.21415366232395172,
					0.5571720600128174,
					1,
					1
				],
				"metallicFactor":0.9200000166893005,
				"roughnessFactor":0.49000000953674316
			}
		}
	],
	"meshes":[
		{
			"name":"Mesh_2",
			"primitives":[
				{
					"attributes":{
						"POSITION":0,
						"TEXCOORD_0":1,
						"TEXCOORD_1":2,
						"NORMAL":3
					},
					"indices":4,
					"material":0
				}
			]
		},
		{
			"name":"Mesh_0",
			"primitives":[
				{
					"attributes":{
						"POSITION":5,
						"TEXCOORD_0":6,
						"NORMAL":7
					},
					"indices":8,
					"material":1
				}
			]
		},
		{
			"name":"Mesh_1",
			"primitives":[
				{
					"attributes":{
						"POSITION":9,
						"TEXCOORD_0":10,
						"NORMAL":11
					},
					"indices":12,
					"material":1
				}
			]
		}
	],
	"accessors":[
		{
			"bufferView":0,
			"componentType":5126,
			"count":1288,
			"max":[
				100.00000762939453,
				91.66917419433594,
				9.999999046325684
			],
			"min":[
				-99.99999237060547,
				-92.41343688964844,
				2.688077529455768e-07
			],
			"type":"VEC3"
		},
		{
			"bufferView":1,
			"componentType":5126,
			"count":1288,
			"type":"VEC2"
		},
		{
			"bufferView":2,
			"componentType":5126,
			"count":1288,
			"type":"VEC2"
		},
		{
			"bufferView":3,
			"componentType":5126,
			"count":1288,
			"type":"VEC3"
		},
		{
			"bufferView":4,
			"componentType":5123,
			"count":6036,
			"type":"SCALAR"
		},
		{
			"bufferView":5,
			"componentType":5126,
			"count":896,
			"max":[
				152.89556884765625,
				-44.593875885009766,
				-8.039196014404297
			],
			"min":[
				10.675247192382812,
				-79.7863540649414,
				-18.039196014404297
			],
			"type":"VEC3"
		},
		{
			"bufferView":6,
			"componentType":5126,
			"count":896,
			"type":"VEC2"
		},
		{
			"bufferView":7,
			"componentType":5126,
			"count":896,
			"type":"VEC3"
		},
		{
			"bufferView":8,
			"componentType":5123,
			"count":5136,
			"type":"SCALAR"
		},
		{
			"bufferView":9,
			"componentType":5126,
			"count":850,
			"max":[
				124.63687896728516,
				-44.5938835144043,
				-8.039196014404297
			],
			"min":[
				10.695671081542969,
				-79.7863540649414,
				-18.039196014404297
			],
			"type":"VEC3"
		},
		{
			"bufferView":10,
			"componentType":5126,
			"count":850,
			"type":"VEC2"
		},
		{
			"bufferView":11,
			"componentType":5126,
			"count":850,
			"type":"VEC3"
		},
		{
			"bufferView":12,
			"componentType":5123,
			"count":5004,
			"type":"SCALAR"
		}
	],
	"bufferViews":[
		{
			"buffer":0,
			"byteLength":15456,
			"byteOffset":0,
			"target":34962
		},
		{
			"buffer":0,
			"byteLength":10304,
			"byteOffset":15456,
			"target":34962
		},
		{
			"buffer":0,
			"byteLength":10304,
			"byteOffset":25760,
			"target":34962
		},
		{
			"buffer":0,
			"byteLength":15456,
			"byteOffset":36064,
			"target":34962
		},
		{
			"buffer":0,
			"byteLength":12072,
			"byteOffset":51520,
			"target":34963
		},
		{
			"buffer":0,
			"byteLength":10752,
			"byteOffset":63592,
			"target":34962
		},
		{
			"buffer":0,
			"byteLength":7168,
			"byteOffset":74344,
			"target":34962
		},
		{
			"buffer":0,
			"byteLength":10752,
			"byteOffset":81512,
			"target":34962
		},
		{
			"buffer":0,
			"byteLength":10272,
			"byteOffset":92264,
			"target":34963
		},
		{
			"buffer":0,
			"byteLength":10200,
			"byteOffset":102536,
			"target":34962
		},
		{
			"buffer":0,
			"byteLength":6800,
			"byteOffset":112736,
			"target":34962
		},
		{
			"buffer":0,
			"byteLength":10200,
			"byteOffset":119536,
			"target":34962
		},
		{
			"buffer":0,
			"byteLength":10008,
			"byteOffset":129736,
			"target":34963
		}
	],
	"buffers":[
		{
			"byteLength":139744,
			"uri":"data:application/octet-stream;base64,"
		}
	]
}
